<?xml version="1.0" encoding="UTF-8"?><svg id="_レイヤー_1" xmlns="http://www.w3.org/2000/svg" viewBox="0 0 258.45 260.78"><defs><style>.cls-1{fill:#ebac30;}</style></defs><path class="cls-1" d="M79.95,254.75c11.97,4.26,24.53,6.51,36.99,5.95,20.21-.9,39.82-7.85,57.49-17.7,17.67-9.85,33.58-22.56,48.96-35.71,11.4-9.74,22.87-20.17,29.14-33.8,6.52-14.17,6.57-30.03,5.21-45.27-1.43-16.07-2.77-32.64-7.74-48.04-6.92-21.46-19.83-41.58-38.76-53.84-11.19-7.25-24.01-11.51-36.74-15.47-33.28-10.36-72.87-18.29-104.94.36-25.32,14.72-38.76,43.13-47.8,69.78C11.83,110.31-4.33,133.99,1.08,166.4c3.83,22.96,12.03,53.32,28.98,69.27,12.76,12,32.8,12.99,49.89,19.07Z"/></svg>