<?xml version="1.0" encoding="UTF-8"?>
<svg id="_レイヤー_1" xmlns="http://www.w3.org/2000/svg" viewBox="0 0 64.05 64.85">
    <defs>
        <style>
            .cls-1 {
                fill:none;stroke:#ccc;stroke-miterlimit:10;
            }
            .cls-2 {
                fill:#fff;
            }
            .cls-3 {
                fill:#e5a51c;
            }
        </style>
    </defs>
    <path class="cls-2" d="M3.61,32.83c0-8.49.21-15.58,6.43-21.67C16.23,5.06,23.48.5,32.18.5s17.26,3.08,23.41,9.23c6.17,6.15,7.56,14.83,7.56,23.45s-4.38,14.3-10.58,20.34c-6.22,6.07-12.05,10.41-20.85,10.41-7.79,0-14.16-2.98-20.36-8.37-6.82-5.96-7.75-13.07-7.75-22.73Z"/>
    <path class="cls-1" d="M3.61,32.83c0-8.49.21-15.58,6.43-21.67C16.23,5.06,23.48.5,32.18.5s17.26,3.08,23.41,9.23c6.17,6.15,7.56,14.83,7.56,23.45s-4.38,14.3-10.58,20.34c-6.22,6.07-12.05,10.41-20.85,10.41-7.79,0-14.16-2.98-20.36-8.37-6.82-5.96-7.75-13.07-7.75-22.73Z"/>
    <circle class="cls-3" cx="40.18" cy="37.85" r="14.19"/>
</svg>