<?xml version="1.0" encoding="UTF-8"?>
<svg data-bbox="0 0 540.94 149.36" viewBox="0 0 540.94 149.36" xmlns="http://www.w3.org/2000/svg" data-type="ugc">
    <g>
        <path fill="#71a79f" d="M540.94 0v149.36H0V0z"/>
        <path fill="#ffffff" d="M150.47 35.97h15.13l2.35-2.41h-19.91z"/>
        <path fill="#ffffff" d="M154.63 40.19h6.85l2.35-2.41h-11.58z"/>
        <path fill="#ffffff" d="m159.76 41.95-7.11-7.19-3.36.02 8.71 8.81z"/>
        <path fill="#ffffff" d="m164.17 46.36 9.87 10.3h-3.35l-8.16-8.53z"/>
        <path fill="#ffffff" d="M150.37 54.25h15.13l2.35 2.41h-19.91z"/>
        <path fill="#ffffff" d="M154.53 50.04h6.85l2.35 2.4h-11.58z"/>
        <path fill="#ffffff" d="m174.04 33.56-21.49 21.9-3.36-.02 21.47-21.88z"/>
        <path fill="#ffffff" d="M183.23 37.78v14.96h-2.66V37.78z"/>
        <path fill="#ffffff" d="M192.47 37.78v2.66h-11.9v-2.66z"/>
        <path fill="#ffffff" d="M210.32 42.06v2.66h-11.9v-2.66z"/>
        <path fill="#ffffff" d="M224.06 37.43v2.66h-11.9v-2.66z"/>
        <path fill="#ffffff" d="M248.63 50.08v2.66h-5.73v-2.66z"/>
        <path fill="#ffffff" d="M224.07 43.78v2.38h-7.35v-2.38z"/>
        <path fill="#ffffff" d="M224.06 50.08v2.66h-11.9v-2.66z"/>
        <path fill="#ffffff" d="M205.7 37.43v15.31h-2.66V37.43z"/>
        <path fill="#ffffff" d="M214.82 37.43v15.31h-2.66V37.43z"/>
        <path fill="#ffffff" d="M233.97 42.06v10.69h-2.66V42.06z"/>
        <path fill="#ffffff" d="M192.48 45.92v2.66h-6.32v-2.66z"/>
        <path d="m192.53 48.57-.48-2.64c.3-.06 1.89-.52 1.89-2.85s-1.73-2.63-1.8-2.63l.31-2.67c1.45.17 4.18 1.49 4.18 5.3s-2.68 5.23-4.1 5.49" fill="#ffffff"/>
        <path d="m192.49 48.58-.39-2.66c.29-.05 1.84-.45 1.84-2.84s-1.26-2.62-1.64-2.63h.03l-.08-2.69c.17 0 1.67-.01 2.9 1.19.98.95 1.48 2.34 1.48 4.12 0 3.87-2.71 5.29-4.14 5.5Z" fill="#ffffff"/>
        <path d="M223.57 37.42c1.67-.02 3.5.84 4.1 2.51.92 2.66-.67 5.55-3.46 6.05l-.38-2.14c.46-.14.98-.45 1.27-.85.4-.5.52-1.52.25-2.15-.27-.58-.99-.74-1.6-.75h-.05l-.12-2.68Z" fill="#ffffff"/>
        <path d="M223.63 50.07c1.07-.01 2.3-.47 2.33-1.7 0-.13.03-.33 0-.46 0-.26-.08-.54-.19-.76-.32-.59-1.05-.9-1.72-.97l.02-2.17c.6.01 1.1.11 1.65.31 1.96.71 2.86 2.57 2.62 4.59-.21 2.41-2.49 3.77-4.72 3.85v-2.69Z" fill="#ffffff"/>
        <path fill="#ffffff" d="M234.42 39.07a1.78 1.78 0 1 1-3.56 0 1.78 1.78 0 0 1 3.56 0"/>
        <path d="M248.01 52.77h-4.13c-3.7 0-6.72-3.01-6.72-6.72v-1.92c0-3.7 3.01-6.71 6.72-6.71h4.13c3.7 0 6.72 3.01 6.72 6.71v1.92c0 3.7-3.01 6.72-6.72 6.72m-4.13-12.67c-2.22 0-4.03 1.81-4.03 4.03v1.92c0 2.22 1.81 4.03 4.03 4.03h4.13c2.22 0 4.03-1.81 4.03-4.03v-1.92c0-2.22-1.81-4.03-4.03-4.03z" fill="#ffffff"/>
        <path d="M118.95 56.91c5.75 2.08 4.52 12.92-1.2 14.22 0 0 2.82.65 3.09 4.09s-4.68 4.97-4.68 4.97 1.71 2.47.33 4.3-16.88 1.28-16.88 1.28l-1-13.23s11.76-18.72 20.34-15.62Z" stroke="#ffffff" stroke-linecap="round" stroke-linejoin="round" stroke-width="6" fill="#ffffff"/>
        <path d="M119.49 54.83c7.54 2.67 5.91 16.51-1.59 17.13l-.03-1.67c1.32.09 2.46.81 3.27 2.01 2.69 4.6-.87 8.14-4.78 8.71l.38-1.34c1.85 1.81 1.98 5.64-.63 6.52-1.96.63-3.88.68-5.86.78-3.79.14-7.56-.1-11.34-.38l-.06-.77-1-13.23s-.04-.21-.04-.22c1.13-2.32 2.46-4.45 3.89-6.52 4.03-5.57 10.69-13.3 17.79-11.03h0Zm-1.09 4.16c-4.95-1.51-11.25 5.29-14.73 8.92-1.53 1.64-3.01 3.39-4.46 5.13l.13-.56 1 13.23s-.75-.8-.73-.8l5.26-.18c3.39-.18 6.94-.17 10.23-.95l.25-.08c.06-.02.25-.11.29-.14-.03 0-.07.09-.04.04.8-1.09-.13-2.96-.47-4.26l.81.03c1.34-.85 3.36-2 3.65-3.7.06-1.61-.8-2.89-1.99-3.69l-1.99-1.71 1.97.04c2.17-1.05 3.29-3.56 3.39-6.12.09-2.24-.64-4.51-2.58-5.19h0Z" stroke="#ffffff" stroke-linecap="round" stroke-linejoin="round" stroke-width="6" fill="#ffffff"/>
        <path d="M26.23 68.02c-5.38 2.92-2.52 13.45 3.33 13.87 0 0-2.69 1.07-2.44 4.51.26 3.44 5.38 4.21 5.38 4.21s-1.31 2.69.33 4.3 16.88-1.28 16.88-1.28l-1-13.23S34.26 63.67 26.24 68.03Z" stroke="#ffffff" stroke-linecap="round" stroke-linejoin="round" stroke-width="6" fill="#ffffff"/>
        <path d="M27.09 70c-1.82.96-2.19 3.31-1.77 5.52.49 2.51 1.97 4.82 4.28 5.53l1.94-.33-1.71 1.99c-1.05.98-1.71 2.37-1.41 3.95.55 1.64 2.71 2.47 4.17 3.11l.79-.15c-.15 1.33-.77 3.38.19 4.29-.01-.02-.03-.04-.05-.04 0 0 .06.02.1.04.11.04.36.08.48.1 3.37.27 6.88-.27 10.25-.6l5.23-.61c.01 0-.61.9-.61.9l-1-13.23.22.53c-1.69-1.5-3.42-3.01-5.18-4.4-3.99-3.07-11.23-8.84-15.91-6.6h0Zm-1.71-3.95c6.68-3.32 14.43 3.32 19.25 8.22 1.72 1.83 3.36 3.74 4.83 5.86v.22l1 13.23.06.77c-3.7.84-7.38 1.65-11.15 2.08-1.97.2-3.88.44-5.91.11-2.71-.49-3.16-4.29-1.6-6.35l.57 1.27c-3.95.03-8.01-2.93-6.04-7.89.62-1.31 1.64-2.19 2.93-2.48l.23 1.66c-7.5.52-11.21-12.93-4.15-16.7h0Z" stroke="#ffffff" stroke-linecap="round" stroke-linejoin="round" stroke-width="6" fill="#ffffff"/>
        <path d="M102.38 90.29s2.79-30.01-4.74-42.41c-7.52-12.4-15.63-15.82-22.03-16.78s-31.28-1.95-30.69 29.14 5.36 43.99 5.36 43.99" stroke="#ffffff" stroke-linecap="round" stroke-linejoin="round" stroke-width="6" fill="#ffffff"/>
        <path d="M101.4 90.97c.53-11.97.82-30.92-4.98-41.22-7.65-12.8-17.9-18.26-31.18-16.09-6.57 1-13.02 4.7-16.19 11.45-1.99 4.04-2.79 8.78-2.97 13.41-.01 1.17-.05 2.77 0 3.94.28 12.43 1.03 24.94 3.55 37.11.36 1.67.78 3.44 1.29 5.03l-1.77.81c-2.31-6.85-3.37-14.13-4.29-21.33-.94-8.09-1.44-16.22-1.56-24.34-.01-1.81.07-3.77.28-5.56.87-8.78 4.82-16.4 11.78-20.5 7.27-4.16 16.14-4.83 24.07-2.6 8.11 2.4 14.69 9.17 19.22 17 3.52 6.43 4.31 14.14 4.81 21.44.36 7.25.13 14.46-.61 21.65l-1.45-.21h0Z" stroke="#ffffff" stroke-linecap="round" stroke-linejoin="round" stroke-width="6" fill="#ffffff"/>
        <path d="M75.77 48.94s-2.42-1.11-5.49.42c-3.44 1.71-6.86 8.16-3.06 16.78 3.8 8.61 9.83 7.48 12.84 5.8 2.58-1.44 5.38-7.47 2.51-15.09s-6.8-7.9-6.8-7.9Z" stroke="#ffffff" stroke-linecap="round" stroke-linejoin="round" stroke-width="6" fill="#ffffff"/>
        <path d="M75.68 49.43c-5.48-1.48-9.38 3.24-9.38 9.28.07 4.97 3.02 11.91 7.52 13.25 2.19.68 5.04.14 6.77-1.41 3.68-4.01 2.92-10.89.52-15.65-1.2-2.41-2.94-4.91-5.42-5.47h0Zm.18-.99c2.76.48 4.86 3.23 6.22 5.85 2.82 5.27 3.56 12.91-.55 17.46-.34.34-.73.66-1.15.91-2.12 1.17-4.56 1.66-6.92.98-5.49-1.56-8.64-9.01-8.65-14.97.04-3.92 1.78-8.05 4.97-9.8 1.82-.97 4.27-1.33 6.07-.43h0Z" stroke="#ffffff" stroke-linecap="round" stroke-linejoin="round" stroke-width="6" fill="#ffffff"/>
        <path d="M73.2 51.52c2.71-.88 6.23 2.8 7.8 7.84 1.83 5.87 1.45 10.47-2.26 11.62-4.61 1.43-7.77-3.83-8.74-8.07-.97-4.25-.86-10.08 3.2-11.39" stroke="#ffffff" stroke-linecap="round" stroke-linejoin="round" stroke-width="6" fill="#ffffff"/>
        <path stroke="#ffffff" stroke-linecap="round" stroke-linejoin="round" stroke-width="6" fill="#ffffff" d="M75.452 57.897c.418 1.42.408 2.673-.02 2.8-.43.126-1.116-.923-1.534-2.343s-.408-2.674.02-2.8c.43-.126 1.116.923 1.534 2.343"/>
        <path stroke="#ffffff" stroke-linecap="round" stroke-linejoin="round" stroke-width="6" fill="#ffffff" d="M78.759 65.139c.246.432-.13 1.11-.84 1.515s-1.485.383-1.731-.048c-.247-.432.13-1.11.84-1.516s1.485-.383 1.73.049"/>
        <path d="M93.59 45.25s-2.14-1.09-4.84.37c-3.02 1.63-5.99 7.86-2.59 16.22s8.72 7.3 11.37 5.7c2.27-1.37 4.7-7.2 2.11-14.59-2.58-7.39-6.05-7.69-6.05-7.69Z" stroke="#ffffff" stroke-linecap="round" stroke-linejoin="round" stroke-width="6" fill="#ffffff"/>
        <path d="M93.49 45.74c-5.15-1.57-8.29 3.76-8.1 9.1.06 2.29.67 4.57 1.53 6.65 1.07 2.52 2.69 5.17 5.15 6 1.72.6 3.62.22 5.17-.72.32-.22.62-.48.87-.82 3.02-4.1 2.24-10.27.18-14.86-1.04-2.26-2.5-4.74-4.8-5.36h0Zm.2-.98c2.56.53 4.4 3.29 5.59 5.77 2.41 4.99 3.23 11.9-.13 16.51-1.81 2.22-4.91 2.9-7.48 2.12-2.48-.77-4.33-2.98-5.58-5.43-1.93-4-2.89-8.86-1.59-13.22.82-2.78 2.71-5.39 5.33-6.02 1.2-.34 2.84-.36 3.85.28h0Z" stroke="#ffffff" stroke-linecap="round" stroke-linejoin="round" stroke-width="6" fill="#ffffff"/>
        <path d="M91.35 47.73c2.39-.83 5.51 2.75 6.93 7.64 1.65 5.69 1.35 10.14-1.92 11.23-4.06 1.35-6.88-3.75-7.76-7.87-.88-4.11-.82-9.76 2.75-11" stroke="#ffffff" stroke-linecap="round" stroke-linejoin="round" stroke-width="6" fill="#ffffff"/>
        <path stroke="#ffffff" stroke-linecap="round" stroke-linejoin="round" stroke-width="6" fill="#ffffff" d="M93.385 53.938c.374 1.38.366 2.584-.018 2.688-.383.104-.998-.93-1.372-2.311s-.366-2.585.018-2.689.998.931 1.372 2.312"/>
        <path d="M95.51 62.47c-.64.35-1.3.27-1.46-.18s.21-1.1.85-1.45 1.3-.27 1.46.18-.21 1.1-.85 1.45" stroke="#ffffff" stroke-linecap="round" stroke-linejoin="round" stroke-width="6" fill="#ffffff"/>
        <path d="M83.5 74.4s3.58-6.92 7.53-7.26c1.7-.15 6.68 2.84 6.68 2.84S97 74.34 83.5 74.4" stroke="#ffffff" stroke-linecap="round" stroke-linejoin="round" stroke-width="6" fill="#ffffff"/>
        <path d="M82.91 74.78c-.13-.22-.12-.64.04-.86l.11-.21c.73-1.35 1.54-2.64 2.47-3.83 1.25-1.55 2.85-3.26 4.83-3.8 1.25-.34 2.63.31 3.72.78 1.6.76 3.09 1.66 4.56 2.68-.51 4.33-8.21 4.91-11.26 5.15-.8.07-1.61.04-2.41.14-.68.11-1.33.1-2.05-.03h0Zm1.18-.76c.14-.09.26-.16.45-.13.92.14 1.85 0 2.76-.07 2.86-.31 8.26-1.1 9.6-4.02l.43 1.01c-1.99-.91-4.09-2.23-6.18-2.5-2.45.2-4.33 2.51-5.85 4.59-.41.58-.82 1.23-1.18 1.86l-.02.03h0v.01c.12-.19.11-.6-.01-.77h0Z" stroke="#ffffff" stroke-linecap="round" stroke-linejoin="round" stroke-width="6" fill="#ffffff"/>
        <path d="M83.51 74.51s2.35 5.84 7.16 6.69c4.03.71 6.29-2.6 6.29-2.6s.06-4.38-13.45-4.09" stroke="#ffffff" stroke-linecap="round" stroke-linejoin="round" stroke-width="6" fill="#ffffff"/>
        <path d="M84.1 74.93c.13-.15.12-.6.05-.71.02.05.07.16.1.2 1.2 2.38 3.13 4.73 5.5 5.38 2.31.79 4.89.16 6.57-1.78l-.17.55v.05c-.52-2-3.78-2.8-5.42-3.17-2-.35-4.19-.67-6.19-.46a.7.7 0 0 1-.44-.06m-1.17-.84c1.47-.2 2.81.08 4.24.03 2.81.14 10.41.43 10.62 4.78-1.41 2.31-3.85 3.65-6.33 3.54-2.32-.03-4.51-1.66-6.06-3.46a16.8 16.8 0 0 1-2.45-4c-.14-.26-.18-.63-.03-.89h0Z" stroke="#ffffff" stroke-linecap="round" stroke-linejoin="round" stroke-width="6" fill="#ffffff"/>
        <path d="M70.89 35.43s.35-8.12-3.28-11.99c-5.04-5.38-11.73-5.3-16.24-.4-2.21 2.4-.32 8.12 5.3 6.63 0 0-2.76.44-1.94 3.5s7.6 1.16 9.41 3.99" stroke="#ffffff" stroke-linecap="round" stroke-linejoin="round" stroke-width="6" fill="#ffffff"/>
        <path d="M70.41 35.4c-.35-3.49-.99-7.23-2.96-10.01-4.04-4.91-10.71-5.64-14.92-.9-1.15 1.38.05 3.77 1.75 4.35.68.3 1.47.45 2.33.56 0 0 .1.55.1.54-1.38.49-2.02 1.77-1.36 3.28.42.71 1.21.86 1.98 1.04 1.14.21 2.37.28 3.62.49 1.34.25 2.81.57 3.73 1.97l-1.08.88c-.62-.89-1.84-1.12-2.84-1.33-1.95-.48-5.16-.17-6.39-2.45-.9-2.14.22-4.34 2.26-4.42l.1.54c-4.33 3.11-9.76-1.87-7.25-7.29.28-.56.72-1.06 1.14-1.47 2.47-2.52 5.83-3.93 9.2-3.64 3.79.33 7.43 2.63 9.67 6.13 1.07 1.79 1.6 3.82 1.87 5.88.25 2 .26 3.95.02 5.92l-.96-.07h0Z" stroke="#ffffff" stroke-linecap="round" stroke-linejoin="round" stroke-width="6" fill="#ffffff"/>
        <path d="M46.84 95.68c.24.18-.41 3.99-.41 3.99l5.19.36 4.8 4.04-.16-5.5 1.82-1.4.68-2.84 2.34 3.32 2.9 4.1 2.05-8.59 2.48-1.41 2.38-5.25 2.7 3.9 2.58.74 2.29 6.28 1.29-5.19 1.08-4.36 2.24 2.41 3.05 3.29 1.08-4.47 1.93-.2 1.38-2.13 1.34 2.11 2.58 4.06 2.56-5.39 2.74-1.65 1.28-1.7 3.77 2.76 2.73 2s16.61 31.69-24.19 40.99c-50.35 10.32-36.51-34.3-36.51-34.3Z" stroke="#ffffff" stroke-linecap="round" stroke-linejoin="round" stroke-width="6" fill="#ffffff"/>
        <path d="M46.5 94.6c.14-.05.37-.09.63.01a1.06 1.06 0 0 1 .6.58v.02l.03.05.03.1c.05.21.07.27.08.42.02 1.41-.27 2.75-.48 4.12l-.94-1.37 5.19.36.3.02.24.21 4.8 4.04-1.58.92c-.02-.33-.16-5.96-.18-6.11.24-.2 1.97-1.51 2.26-1.74l-.39.63.68-2.84.51-2.12c.74 1.04 5.61 7.94 6.47 9.15l-1.74.38 2.05-8.59.11-.48c.17-.08 2.62-1.5 2.87-1.63l-.43.48c.5-1.09 2.62-5.79 3.08-6.8.61.89 3 4.33 3.67 5.29l-.55-.41c.36.09 2.78.81 3.08.89l.2.54L79.38 97l-1.88.09c.3-1.2 2.57-10.36 2.82-11.33.73.8 5.64 6.06 6.49 6.99l-1.64.5c.09-.41 1.19-4.91 1.26-5.21.54-.06 2.06-.21 2.61-.27l-.7.45c.46-.72 1.72-2.65 2.18-3.37.48.76 4.17 6.54 4.74 7.44l-1.69.1L96.13 87l.14-.3.26-.16 2.74-1.65-.28.26 1.28-1.7.56-.74c.36.22 6.72 4.95 7.23 5.3l.21.15.12.23c4.14 7.37 5.68 16.93 2.6 25.01-2.34 6.11-6.97 10.65-12.06 13.61-3.24 1.95-6.84 3.41-10.38 4.49-.98.34-2.57.71-3.58.98-1.18.36-4.17.8-5.42 1.03-11.29 1.63-26.35 1.56-33.15-11.13-4.12-8.02-3.36-17.84-.85-26.14.23-.63.34-1.4.95-1.68h0Zm.67 2.16c.25 0 .55-.38.58-.55v.03l-.02.06c-.05.17-.11.53-.15.71-1.3 7-1.63 14.97 1.37 21.5 3.18 6.86 9.8 9.47 16.2 10.03 10.3.83 23.92-1.71 33.01-7.25 11.17-6.67 13.52-18.81 8.52-31.74l.33.38-6.5-4.76 1.29-.2-1.28 1.7-.12.16-.16.1-2.74 1.65.4-.45c-.57 1.24-2.79 5.84-3.31 6.96-.59-.9-4.19-6.61-4.87-7.64l1.61.03c-.23.35-1.45 2.26-1.64 2.53-.23.03-2.09.21-2.37.24l.85-.81c-.31 1.3-1.23 5.04-1.52 6.27-.74-.78-5.64-6.09-6.5-7l1.64-.49c-.57 2.31-2.62 10.54-3.15 12.68l-1.11-3.04-2.29-6.28.69.68c-.18-.06-2.84-.82-2.92-.84l-.22-.31-2.7-3.9 1.67-.16-2.38 5.25-.15.32c-.07.05-2.61 1.47-2.76 1.57l.5-.7c-.38 1.57-2.23 9.31-2.56 10.71-.79-1.12-5.57-7.88-6.47-9.15l1.74-.38c-.06.24-.74 3.1-.78 3.23-.21.16-1.87 1.44-2.11 1.63l.43-.96.16 5.5.07 2.31c-1.14-.95-5.25-4.43-6.45-5.43l.54.23-5.19-.36-1.16-.08c.25-1.55.59-3.23.66-4.79v.03c0 .03 0 .02.03.14.16.54.79.87 1.24.65h0Z" stroke="#ffffff" stroke-linecap="round" stroke-linejoin="round" stroke-width="6" fill="#ffffff"/>
        <path d="m54.03 46.93-2.33-1.07c1.19-3.5 4.44-5.56 4.58-5.65l1.23 2.5-.62-1.25.62 1.25s-2.61 1.67-3.48 4.22" stroke="#ffffff" stroke-linecap="round" stroke-linejoin="round" stroke-width="6" fill="#ffffff"/>
        <path d="M51.64 92.49c-4.38-30.99-1.38-41.84-1.25-42.29l2.37.94-1.19-.47 1.19.46c-.03.1-2.92 10.84 1.34 40.96l-2.47.4Z" stroke="#ffffff" stroke-linecap="round" stroke-linejoin="round" stroke-width="6" fill="#ffffff"/>
        <path d="M118.95 56.91c5.75 2.08 4.52 12.92-1.2 14.22 0 0 2.82.65 3.09 4.09s-4.68 4.97-4.68 4.97 1.71 2.47.33 4.3-16.88 1.28-16.88 1.28l-1-13.23s11.76-18.72 20.34-15.62Z" fill="#fcf3b2"/>
        <path d="M119.49 54.83c7.54 2.67 5.91 16.51-1.59 17.13l-.03-1.67c1.32.09 2.46.81 3.27 2.01 2.69 4.6-.87 8.14-4.78 8.71l.38-1.34c1.85 1.81 1.98 5.64-.63 6.52-1.96.63-3.88.68-5.86.78-3.79.14-7.56-.1-11.34-.38l-.06-.77-1-13.23s-.04-.21-.04-.22c1.13-2.32 2.46-4.45 3.89-6.52 4.03-5.57 10.69-13.3 17.79-11.03Zm-1.09 4.16c-4.95-1.51-11.25 5.29-14.73 8.92-1.53 1.64-3.01 3.39-4.46 5.13l.13-.56 1 13.23s-.75-.8-.73-.8l5.26-.18c3.39-.18 6.94-.17 10.23-.95l.25-.08c.06-.02.25-.11.29-.14-.03 0-.07.09-.04.04.8-1.09-.13-2.96-.47-4.26l.81.03c1.34-.85 3.36-2 3.65-3.7.06-1.61-.8-2.89-1.99-3.69l-1.99-1.71 1.97.04c2.17-1.05 3.29-3.56 3.39-6.12.09-2.24-.64-4.51-2.58-5.19Z" fill="#7c7153"/>
        <path d="M26.23 68.02c-5.38 2.92-2.52 13.45 3.33 13.87 0 0-2.69 1.07-2.44 4.51.26 3.44 5.38 4.21 5.38 4.21s-1.31 2.69.33 4.3 16.88-1.28 16.88-1.28l-1-13.23S34.26 63.67 26.24 68.03Z" fill="#fcf3b2"/>
        <path d="M27.09 70c-1.82.96-2.19 3.31-1.77 5.52.49 2.51 1.97 4.82 4.28 5.53l1.94-.33-1.71 1.99c-1.05.98-1.71 2.37-1.41 3.95.55 1.64 2.71 2.47 4.17 3.11l.79-.15c-.15 1.33-.77 3.38.19 4.29-.01-.02-.03-.04-.05-.04 0 0 .06.02.1.04.11.04.36.08.48.1 3.37.27 6.88-.27 10.25-.6l5.23-.61c.01 0-.61.9-.61.9l-1-13.23.22.53c-1.69-1.5-3.42-3.01-5.18-4.4-3.99-3.07-11.23-8.84-15.91-6.6Zm-1.71-3.95c6.68-3.32 14.43 3.32 19.25 8.22 1.72 1.83 3.36 3.74 4.83 5.86v.22l1 13.23.06.77c-3.7.84-7.38 1.65-11.15 2.08-1.97.2-3.88.44-5.91.11-2.71-.49-3.16-4.29-1.6-6.35l.57 1.27c-3.95.03-8.01-2.93-6.04-7.89.62-1.31 1.64-2.19 2.93-2.48l.23 1.66c-7.5.52-11.21-12.93-4.15-16.7Z" fill="#7c7153"/>
        <path d="M102.38 90.29s2.79-30.01-4.74-42.41c-7.52-12.4-15.63-15.82-22.03-16.78s-31.28-1.95-30.69 29.14 5.36 43.99 5.36 43.99" fill="#fcf3b2"/>
        <path d="M101.4 90.97c.53-11.97.82-30.92-4.98-41.22-7.65-12.8-17.9-18.26-31.18-16.09-6.57 1-13.02 4.7-16.19 11.45-1.99 4.04-2.79 8.78-2.97 13.41-.01 1.17-.05 2.77 0 3.94.28 12.43 1.03 24.94 3.55 37.11.36 1.67.78 3.44 1.29 5.03l-1.77.81c-2.31-6.85-3.37-14.13-4.29-21.33-.94-8.09-1.44-16.22-1.56-24.34-.01-1.81.07-3.77.28-5.56.87-8.78 4.82-16.4 11.78-20.5 7.27-4.16 16.14-4.83 24.07-2.6 8.11 2.4 14.69 9.17 19.22 17 3.52 6.43 4.31 14.14 4.81 21.44.36 7.25.13 14.46-.61 21.65l-1.45-.21Z" fill="#7e7254"/>
        <path d="M75.77 48.94s-2.42-1.11-5.49.42c-3.44 1.71-6.86 8.16-3.06 16.78 3.8 8.61 9.83 7.48 12.84 5.8 2.58-1.44 5.38-7.47 2.51-15.09s-6.8-7.9-6.8-7.9Z" fill="#ffffff"/>
        <path d="M75.68 49.43c-5.48-1.48-9.38 3.24-9.38 9.28.07 4.97 3.02 11.91 7.52 13.25 2.19.68 5.04.14 6.77-1.41 3.68-4.01 2.92-10.89.52-15.65-1.2-2.41-2.94-4.91-5.42-5.47Zm.18-.99c2.76.48 4.86 3.23 6.22 5.85 2.82 5.27 3.56 12.91-.55 17.46-.34.34-.73.66-1.15.91-2.12 1.17-4.56 1.66-6.92.98-5.49-1.56-8.64-9.01-8.65-14.97.04-3.92 1.78-8.05 4.97-9.8 1.82-.97 4.27-1.33 6.07-.43Z" fill="#7c7153"/>
        <path d="M73.2 51.52c2.71-.88 6.23 2.8 7.8 7.84 1.83 5.87 1.45 10.47-2.26 11.62-4.61 1.43-7.77-3.83-8.74-8.07-.97-4.25-.86-10.08 3.2-11.39" fill="#7c7153"/>
        <path fill="#ffffff" d="M75.452 57.897c.418 1.42.408 2.673-.02 2.8-.43.126-1.116-.923-1.534-2.343s-.408-2.674.02-2.8c.43-.126 1.116.923 1.534 2.343"/>
        <path fill="#ffffff" d="M78.759 65.139c.246.432-.13 1.11-.84 1.515s-1.485.383-1.731-.048c-.247-.432.13-1.11.84-1.516s1.485-.383 1.73.049"/>
        <path d="M93.59 45.25s-2.14-1.09-4.84.37c-3.02 1.63-5.99 7.86-2.59 16.22s8.72 7.3 11.37 5.7c2.27-1.37 4.7-7.2 2.11-14.59-2.58-7.39-6.05-7.69-6.05-7.69Z" fill="#ffffff"/>
        <path d="M93.49 45.74c-5.15-1.57-8.29 3.76-8.1 9.1.06 2.29.67 4.57 1.53 6.65 1.07 2.52 2.69 5.17 5.15 6 1.72.6 3.62.22 5.17-.72.32-.22.62-.48.87-.82 3.02-4.1 2.24-10.27.18-14.86-1.04-2.26-2.5-4.74-4.8-5.36Zm.2-.98c2.56.53 4.4 3.29 5.59 5.77 2.41 4.99 3.23 11.9-.13 16.51-1.81 2.22-4.91 2.9-7.48 2.12-2.48-.77-4.33-2.98-5.58-5.43-1.93-4-2.89-8.86-1.59-13.22.82-2.78 2.71-5.39 5.33-6.02 1.2-.34 2.84-.36 3.85.28Z" fill="#7c7153"/>
        <path d="M91.35 47.73c2.39-.83 5.51 2.75 6.93 7.64 1.65 5.69 1.35 10.14-1.92 11.23-4.06 1.35-6.88-3.75-7.76-7.87-.88-4.11-.82-9.76 2.75-11" fill="#7c7153"/>
        <path fill="#ffffff" d="M93.385 53.938c.374 1.38.366 2.584-.018 2.688-.383.104-.998-.93-1.372-2.311s-.366-2.585.018-2.689.998.931 1.372 2.312"/>
        <path d="M95.51 62.47c-.64.35-1.3.27-1.46-.18s.21-1.1.85-1.45 1.3-.27 1.46.18-.21 1.1-.85 1.45" fill="#ffffff"/>
        <path d="M83.5 74.4s3.58-6.92 7.53-7.26c1.7-.15 6.68 2.84 6.68 2.84S97 74.34 83.5 74.4" fill="#d8b366"/>
        <path d="M82.91 74.78c-.13-.22-.12-.64.04-.86l.11-.21c.73-1.35 1.54-2.64 2.47-3.83 1.25-1.55 2.85-3.26 4.83-3.8 1.25-.34 2.63.31 3.72.78 1.6.76 3.09 1.66 4.56 2.68-.51 4.33-8.21 4.91-11.26 5.15-.8.07-1.61.04-2.41.14-.68.11-1.33.1-2.05-.03Zm1.18-.76c.14-.09.26-.16.45-.13.92.14 1.85 0 2.76-.07 2.86-.31 8.26-1.1 9.6-4.02l.43 1.01c-1.99-.91-4.09-2.23-6.18-2.5-2.45.2-4.33 2.51-5.85 4.59-.41.58-.82 1.23-1.18 1.86l-.02.03v.01c.12-.19.11-.6-.01-.77Z" fill="#7c7153"/>
        <path d="M83.51 74.51s2.35 5.84 7.16 6.69c4.03.71 6.29-2.6 6.29-2.6s.06-4.38-13.45-4.09" fill="#d8b366"/>
        <path d="M84.1 74.93c.13-.15.12-.6.05-.71.02.05.07.16.1.2 1.2 2.38 3.13 4.73 5.5 5.38 2.31.79 4.89.16 6.57-1.78l-.17.55v.05c-.52-2-3.78-2.8-5.42-3.17-2-.35-4.19-.67-6.19-.46a.7.7 0 0 1-.44-.06m-1.17-.84c1.47-.2 2.81.08 4.24.03 2.81.14 10.41.43 10.62 4.78-1.41 2.31-3.85 3.65-6.33 3.54-2.32-.03-4.51-1.66-6.06-3.46a16.8 16.8 0 0 1-2.45-4c-.14-.26-.18-.63-.03-.89Z" fill="#7c7153"/>
        <path d="M70.89 35.43s.35-8.12-3.28-11.99c-5.04-5.38-11.73-5.3-16.24-.4-2.21 2.4-.32 8.12 5.3 6.63 0 0-2.76.44-1.94 3.5s7.6 1.16 9.41 3.99" fill="#fcf3b2"/>
        <path d="M70.41 35.4c-.35-3.49-.99-7.23-2.96-10.01-4.04-4.91-10.71-5.64-14.92-.9-1.15 1.38.05 3.77 1.75 4.35.68.3 1.47.45 2.33.56 0 0 .1.55.1.54-1.38.49-2.02 1.77-1.36 3.28.42.71 1.21.86 1.98 1.04 1.14.21 2.37.28 3.62.49 1.34.25 2.81.57 3.73 1.97l-1.08.88c-.62-.89-1.84-1.12-2.84-1.33-1.95-.48-5.16-.17-6.39-2.45-.9-2.14.22-4.34 2.26-4.42l.1.54c-4.33 3.11-9.76-1.87-7.25-7.29.28-.56.72-1.06 1.14-1.47 2.47-2.52 5.83-3.93 9.2-3.64 3.79.33 7.43 2.63 9.67 6.13 1.07 1.79 1.6 3.82 1.87 5.88.25 2 .26 3.95.02 5.92l-.96-.07Z" fill="#7e7254"/>
        <path d="M46.84 95.68c.24.18-.41 3.99-.41 3.99l5.19.36 4.8 4.04-.16-5.5 1.82-1.4.68-2.84 2.34 3.32 2.9 4.1 2.05-8.59 2.48-1.41 2.38-5.25 2.7 3.9 2.58.74 2.29 6.28 1.29-5.19 1.08-4.36 2.24 2.41 3.05 3.29 1.08-4.47 1.93-.2 1.38-2.13 1.34 2.11 2.58 4.06 2.56-5.39 2.74-1.65 1.28-1.7 3.77 2.76 2.73 2s16.61 31.69-24.19 40.99c-50.35 10.32-36.51-34.3-36.51-34.3Z" fill="#dedad4"/>
        <path d="M46.5 94.6c.14-.05.37-.09.63.01a1.06 1.06 0 0 1 .6.58v.02l.03.05.03.1c.05.21.07.27.08.42.02 1.41-.27 2.75-.48 4.12l-.94-1.37 5.19.36.3.02.24.21 4.8 4.04-1.58.92c-.02-.33-.16-5.96-.18-6.11.24-.2 1.97-1.51 2.26-1.74l-.39.63.68-2.84.51-2.12c.74 1.04 5.61 7.94 6.47 9.15l-1.74.38 2.05-8.59.11-.48c.17-.08 2.62-1.5 2.87-1.63l-.43.48c.5-1.09 2.62-5.79 3.08-6.8.61.89 3 4.33 3.67 5.29l-.55-.41c.36.09 2.78.81 3.08.89l.2.54L79.38 97l-1.88.09c.3-1.2 2.57-10.36 2.82-11.33.73.8 5.64 6.06 6.49 6.99l-1.64.5c.09-.41 1.19-4.91 1.26-5.21.54-.06 2.06-.21 2.61-.27l-.7.45c.46-.72 1.72-2.65 2.18-3.37.48.76 4.17 6.54 4.74 7.44l-1.69.1L96.13 87l.14-.3.26-.16 2.74-1.65-.28.26 1.28-1.7.56-.74c.36.22 6.72 4.95 7.23 5.3l.21.15.12.23c4.14 7.37 5.68 16.93 2.6 25.01-2.34 6.11-6.97 10.65-12.06 13.61-3.24 1.95-6.84 3.41-10.38 4.49-.98.34-2.57.71-3.58.98-1.18.36-4.17.8-5.42 1.03-11.29 1.63-26.35 1.56-33.15-11.13-4.12-8.02-3.36-17.84-.85-26.14.23-.63.34-1.4.95-1.68Zm.67 2.16c.25 0 .55-.38.58-.55v.03l-.02.06c-.05.17-.11.53-.15.71-1.3 7-1.63 14.97 1.37 21.5 3.18 6.86 9.8 9.47 16.2 10.03 10.3.83 23.92-1.71 33.01-7.25 11.17-6.67 13.52-18.81 8.52-31.74l.33.38-6.5-4.76 1.29-.2-1.28 1.7-.12.16-.16.1-2.74 1.65.4-.45c-.57 1.24-2.79 5.84-3.31 6.96-.59-.9-4.19-6.61-4.87-7.64l1.61.03c-.23.35-1.45 2.26-1.64 2.53-.23.03-2.09.21-2.37.24l.85-.81c-.31 1.3-1.23 5.04-1.52 6.27-.74-.78-5.64-6.09-6.5-7l1.64-.49c-.57 2.31-2.62 10.54-3.15 12.68l-1.11-3.04-2.29-6.28.69.68c-.18-.06-2.84-.82-2.92-.84l-.22-.31-2.7-3.9 1.67-.16-2.38 5.25-.15.32c-.07.05-2.61 1.47-2.76 1.57l.5-.7c-.38 1.57-2.23 9.31-2.56 10.71-.79-1.12-5.57-7.88-6.47-9.15l1.74-.38c-.06.24-.74 3.1-.78 3.23-.21.16-1.87 1.44-2.11 1.63l.43-.96.16 5.5.07 2.31c-1.14-.95-5.25-4.43-6.45-5.43l.54.23-5.19-.36-1.16-.08c.25-1.55.59-3.23.66-4.79v.03c0 .03 0 .02.03.14.16.54.79.87 1.24.65Z" fill="#7c7153"/>
        <path d="m54.03 46.93-2.33-1.07c1.19-3.5 4.44-5.56 4.58-5.65l1.23 2.5-.62-1.25.62 1.25s-2.61 1.67-3.48 4.22" fill="#ffffff"/>
        <path d="M51.64 92.49c-4.38-30.99-1.38-41.84-1.25-42.29l2.37.94-1.19-.47 1.19.46c-.03.1-2.92 10.84 1.34 40.96l-2.47.4Z" fill="#ffffff"/>
        <path d="M145.48 116.56c0-.64.11-1.21.33-1.7s.52-.9.89-1.23c.36-.31.76-.55 1.22-.71s.91-.25 1.37-.25.92.08 1.37.25.87.4 1.24.71q.54.495.87 1.23c.22.49.33 1.06.33 1.7v8.4c0 .67-.11 1.24-.33 1.72s-.51.87-.87 1.18c-.37.33-.79.57-1.24.74-.45.16-.91.25-1.37.25s-.92-.08-1.37-.25a3.6 3.6 0 0 1-1.22-.74c-.37-.31-.67-.71-.89-1.18-.22-.48-.33-1.05-.33-1.72zm2.27 8.4c0 .55.15.96.46 1.22.3.26.67.39 1.08.39s.78-.13 1.08-.39c.31-.26.46-.67.46-1.22v-8.4c0-.55-.15-.96-.46-1.22q-.465-.39-1.08-.39c-.615 0-.78.13-1.08.39-.31.26-.46.67-.46 1.22z" fill="#ffffff"/>
        <path d="m163.05 117.39-2.95 11.32h-2.01l-2.95-11.32h2.41l1.52 7.23h.04l1.52-7.23h2.41Z" fill="#ffffff"/>
        <path d="M164.88 121.18c0-.46.03-.88.09-1.27s.17-.73.33-1.03c.27-.49.65-.89 1.15-1.18.5-.3 1.11-.45 1.82-.45s1.32.15 1.82.45.88.69 1.15 1.18c.16.3.28.64.33 1.03.06.39.09.81.09 1.27v3.73c0 .46-.03.88-.09 1.27s-.17.73-.33 1.03c-.27.49-.65.89-1.15 1.19s-1.11.45-1.82.45-1.32-.15-1.82-.45-.88-.69-1.15-1.19c-.16-.3-.28-.64-.33-1.03-.06-.39-.09-.81-.09-1.27zm2.28 4.09c0 .43.1.76.3.97.2.22.47.32.82.32s.61-.11.81-.32.3-.54.3-.97v-4.45c0-.43-.1-.75-.3-.97-.2-.21-.47-.32-.81-.32s-.61.11-.82.32c-.2.22-.3.54-.3.97z" fill="#ffffff"/>
        <path d="M174.46 128.71v-11.32h2.28v1.09h.04c.24-.36.52-.65.86-.88s.76-.35 1.28-.35q.735 0 1.23.36c.33.24.59.5.8.78.28-.31.6-.58.94-.8s.82-.34 1.43-.34c.28 0 .57.05.87.14.3.1.57.26.8.48s.43.51.58.86.22.78.22 1.29v8.69h-2.28v-7.84c0-.42-.1-.74-.29-.98s-.47-.36-.83-.36c-.43 0-.73.13-.89.4s-.25.66-.25 1.16v7.62h-2.28v-7.84c0-.42-.1-.74-.29-.98s-.47-.36-.83-.36c-.43 0-.73.13-.89.4s-.25.66-.25 1.16v7.62h-2.28Z" fill="#ffffff"/>
        <path d="M195.61 117.39v11.32h-2.28v-1.1h-.04c-.24.36-.52.65-.86.88s-.76.35-1.28.35c-.28 0-.57-.05-.85-.14-.28-.1-.54-.26-.76-.48s-.4-.51-.54-.86-.2-.78-.2-1.29v-8.69h2.28v7.84c0 .42.1.74.29.98s.47.36.83.36c.43 0 .73-.13.89-.4s.25-.65.25-1.16v-7.62h2.28Z" fill="#ffffff"/>
        <path d="M201.01 125.45c0 .36.1.63.3.83s.47.29.82.29c.43 0 .72-.13.86-.38s.23-.51.26-.76h2.28c0 1-.31 1.8-.92 2.41-.3.31-.66.56-1.07.74s-.89.27-1.41.27c-.71 0-1.32-.15-1.82-.45s-.88-.69-1.15-1.19c-.16-.3-.28-.64-.33-1.03-.06-.39-.09-.81-.09-1.27v-3.73c0-.46.03-.88.09-1.27s.17-.73.33-1.03c.27-.49.65-.89 1.15-1.18.5-.3 1.11-.45 1.82-.45.52 0 .99.09 1.42.27.42.18.79.43 1.08.74.6.67.89 1.54.89 2.61h-2.28q0-.69-.3-1.02c-.2-.21-.47-.32-.81-.32s-.61.11-.82.32c-.2.22-.3.54-.3.97v4.62Z" fill="#ffffff"/>
        <path d="M207.78 121.18c0-.46.03-.88.09-1.27s.17-.73.33-1.03c.27-.49.65-.89 1.15-1.18.5-.3 1.11-.45 1.82-.45s1.32.15 1.82.45.88.69 1.15 1.18c.16.3.28.64.33 1.03.06.39.09.81.09 1.27v3.73c0 .46-.03.88-.09 1.27s-.17.73-.33 1.03c-.27.49-.65.89-1.15 1.19s-1.11.45-1.82.45-1.32-.15-1.82-.45-.88-.69-1.15-1.19c-.16-.3-.28-.64-.33-1.03-.06-.39-.09-.81-.09-1.27zm2.28 4.09c0 .43.1.76.3.97.2.22.47.32.82.32s.61-.11.81-.32.3-.54.3-.97v-4.45c0-.43-.1-.75-.3-.97-.2-.21-.47-.32-.81-.32s-.61.11-.82.32c-.2.22-.3.54-.3.97z" fill="#ffffff"/>
        <path d="M217.36 115.09v-2.28h2.28v2.28zm0 13.62v-11.32h2.28v11.32z" fill="#ffffff"/>
        <path d="M227.16 128.71v-1.03c-.15.16-.29.32-.42.46s-.28.26-.45.37c-.16.1-.35.19-.56.25s-.45.09-.74.09c-.95 0-1.62-.36-1.99-1.07-.13-.25-.23-.56-.29-.94q-.09-.555-.09-1.5v-4.31c0-.82.02-1.42.07-1.81.09-.74.44-1.3 1.05-1.67.28-.19.71-.29 1.27-.29.45 0 .84.1 1.2.3.35.2.65.49.9.86h.04v-5.6h2.28v15.9h-2.28Zm-2.25-3.69c0 .46.09.83.27 1.12s.46.42.85.42c.34 0 .62-.13.83-.39s.31-.6.31-1.02v-4.4c0-.36-.11-.65-.32-.88-.22-.23-.49-.35-.82-.35-.43 0-.73.13-.88.4s-.23.58-.23.94v4.15Z" fill="#ffffff"/>
        <path d="M237.84 128.71v-15.9h6.79v2.14h-4.51v4.82h3.93v2.14h-3.93v6.79h-2.28Z" fill="#ffffff"/>
        <path d="M247.22 128.71v-15.9h3.66c2.68 0 4.02 1.55 4.02 4.67 0 .94-.15 1.73-.44 2.39q-.435.975-1.53 1.59l2.46 7.26h-2.41l-2.12-6.79h-1.36v6.79h-2.28Zm2.27-13.76v4.96h1.29c.4 0 .72-.06.96-.17s.42-.27.56-.48c.12-.21.2-.46.25-.77.04-.31.07-.66.07-1.06s-.02-.75-.07-1.06c-.04-.3-.13-.57-.27-.79-.28-.42-.82-.62-1.61-.62h-1.18Z" fill="#ffffff"/>
        <path d="M257.85 128.71v-15.9h6.79v2.14h-4.51v4.67h3.93v2.14h-3.93v4.67h4.51v2.28z" fill="#ffffff"/>
        <path d="M267.22 128.71v-15.9h6.79v2.14h-4.51v4.67h3.93v2.14h-3.93v4.67h4.51v2.28z" fill="#ffffff"/>
        <path d="M290.24 128.71v-13.76h-2.63v-2.14h7.55v2.14h-2.64v13.76z" fill="#ffffff"/>
        <path d="M303.72 123.91h-4.51v1.54c0 .36.1.63.3.83s.47.29.82.29c.43 0 .72-.13.86-.38s.23-.51.26-.76h2.28c0 1-.31 1.8-.92 2.41-.3.31-.66.56-1.07.74s-.89.27-1.41.27c-.71 0-1.32-.15-1.82-.45s-.88-.69-1.15-1.19c-.16-.3-.28-.64-.33-1.03-.06-.39-.09-.81-.09-1.27v-3.73c0-.46.03-.88.09-1.27s.17-.73.33-1.03c.27-.49.65-.89 1.15-1.18.5-.3 1.11-.45 1.82-.45.52 0 .99.09 1.42.27.42.18.79.43 1.08.74.6.67.89 1.51.89 2.52v3.12Zm-4.51-1.79h2.23v-1.3c0-.43-.1-.75-.3-.97-.2-.21-.47-.32-.81-.32s-.61.11-.82.32c-.2.22-.3.54-.3.97z" fill="#ffffff"/>
        <path d="M308.93 125.45c0 .36.1.63.3.83s.47.29.82.29c.43 0 .72-.13.86-.38s.23-.51.26-.76h2.28c0 1-.31 1.8-.92 2.41-.3.31-.66.56-1.07.74s-.89.27-1.41.27c-.71 0-1.32-.15-1.82-.45s-.88-.69-1.15-1.19c-.16-.3-.28-.64-.33-1.03-.06-.39-.09-.81-.09-1.27v-3.73c0-.46.03-.88.09-1.27s.17-.73.33-1.03c.27-.49.65-.89 1.15-1.18.5-.3 1.11-.45 1.82-.45.52 0 .99.09 1.42.27.42.18.79.43 1.08.74.6.67.89 1.54.89 2.61h-2.28q0-.69-.3-1.02c-.2-.21-.47-.32-.81-.32s-.61.11-.82.32c-.2.22-.3.54-.3.97v4.62Z" fill="#ffffff"/>
        <path d="M315.9 128.71v-15.9h2.28v5.67h.04c.24-.36.52-.65.86-.88s.76-.35 1.28-.35c.28 0 .57.05.85.14.28.1.54.26.76.48s.4.51.54.86c.13.35.2.78.2 1.29v8.69h-2.28v-7.84c0-.42-.1-.74-.29-.98s-.47-.36-.83-.36c-.43 0-.73.13-.89.4s-.25.66-.25 1.16v7.62h-2.28Z" fill="#ffffff"/>
        <path d="M325.7 128.71v-11.32h2.28v1.09h.04c.24-.36.52-.65.86-.88s.76-.35 1.28-.35c.28 0 .57.05.85.14.28.1.54.26.76.48s.4.51.54.86c.13.35.2.78.2 1.29v8.69h-2.28v-7.84c0-.42-.1-.74-.29-.98s-.47-.36-.83-.36c-.43 0-.73.13-.89.4s-.25.66-.25 1.16v7.62h-2.28Z" fill="#ffffff"/>
        <path d="M335.3 121.18c0-.46.03-.88.09-1.27s.17-.73.33-1.03c.27-.49.65-.89 1.15-1.18.5-.3 1.11-.45 1.82-.45s1.32.15 1.82.45.88.69 1.15 1.18c.16.3.28.64.33 1.03.06.39.09.81.09 1.27v3.73c0 .46-.03.88-.09 1.27s-.17.73-.33 1.03c-.27.49-.65.89-1.15 1.19s-1.11.45-1.82.45-1.32-.15-1.82-.45-.88-.69-1.15-1.19c-.16-.3-.28-.64-.33-1.03-.06-.39-.09-.81-.09-1.27zm2.28 4.09c0 .43.1.76.3.97.2.22.47.32.82.32s.61-.11.81-.32.3-.54.3-.97v-4.45c0-.43-.1-.75-.3-.97-.2-.21-.47-.32-.81-.32s-.61.11-.82.32c-.2.22-.3.54-.3.97z" fill="#ffffff"/>
        <path d="M344.75 112.81h2.28v12.71c0 .43.08.72.23.88.16.16.45.26.88.3v2.14q-.78 0-1.41-.12c-.42-.08-.77-.24-1.07-.48-.3-.22-.53-.54-.68-.95-.16-.41-.23-.95-.23-1.62z" fill="#ffffff"/>
        <path d="M349.95 121.18c0-.46.03-.88.09-1.27s.17-.73.33-1.03c.27-.49.65-.89 1.15-1.18.5-.3 1.11-.45 1.82-.45s1.32.15 1.82.45.88.69 1.15 1.18c.16.3.28.64.33 1.03.06.39.09.81.09 1.27v3.73c0 .46-.03.88-.09 1.27s-.17.73-.33 1.03c-.27.49-.65.89-1.15 1.19s-1.11.45-1.82.45-1.32-.15-1.82-.45-.88-.69-1.15-1.19c-.16-.3-.28-.64-.33-1.03-.06-.39-.09-.81-.09-1.27zm2.28 4.09c0 .43.1.76.3.97.2.22.47.32.82.32s.61-.11.81-.32.3-.54.3-.97v-4.45c0-.43-.1-.75-.3-.97-.2-.21-.47-.32-.81-.32s-.61.11-.82.32c-.2.22-.3.54-.3.97z" fill="#ffffff"/>
        <path d="M361.81 130.02c.01.27.12.52.32.76s.49.36.88.36.64-.12.8-.35.25-.53.25-.88v-2.23h-.04c-.25.37-.55.66-.9.86s-.76.3-1.22.3c-.95 0-1.62-.36-1.99-1.07-.13-.25-.23-.56-.29-.94q-.09-.555-.09-1.5v-4.31c0-.82.02-1.42.07-1.81.09-.74.44-1.3 1.05-1.67.28-.19.71-.29 1.27-.29.28 0 .52.03.73.09.2.06.38.14.55.25.16.1.31.23.45.37.13.14.28.29.42.46v-1.03h2.28v12.71c0 .39-.06.78-.19 1.17s-.33.75-.61 1.06c-.28.33-.64.59-1.07.79s-.95.3-1.54.3c-.34 0-.7-.05-1.07-.17-.37-.11-.71-.3-1.03-.57q-.495-.375-.84-1.02c-.23-.43-.38-.97-.46-1.64h2.28Zm0-4.8c0 .36.08.67.23.94s.45.4.88.4c.33 0 .6-.12.82-.35s.32-.53.32-.88v-4.4c0-.42-.1-.76-.31-1.02s-.48-.39-.83-.39c-.39 0-.67.14-.85.43-.18.28-.27.65-.27 1.12v4.15Z" fill="#ffffff"/>
        <path d="M368.37 117.39h2.41l1.56 7.06h.04l1.54-7.06h2.34L373 130.68c-.12.51-.29.92-.5 1.25s-.46.6-.75.8c-.28.21-.58.35-.9.44s-.65.12-.99.12h-.62v-2.14h.51c.22 0 .42-.03.58-.09s.31-.19.45-.4c.12-.21.23-.5.33-.88s.22-.9.36-1.57l-3.1-10.81Z" fill="#ffffff"/>
        <path d="M147.36 104.12c-1.45 0-2.08-.64-2.08-2.08V64.52c0-1.45.64-2.08 2.08-2.08h26.87c1.45 0 2.08.64 2.08 2.08v6.78c0 1.45-.64 2.08-2.08 2.08h-15.98v4.46h11.29c1.45 0 2.08.64 2.08 2.08v6.2c0 1.45-.64 2.08-2.08 2.08h-11.29v4.98h15.98c1.45 0 2.08.64 2.08 2.08v6.77c0 1.45-.64 2.08-2.08 2.08h-26.87Z" fill="#ffffff"/>
        <path d="M195.6 104.12c-9.73 0-14.25-3.76-14.25-11.81V74.24c0-8.05 4.52-11.81 14.25-11.81h14.48c1.45 0 2.08.64 2.08 2.08v7.01c0 1.45-.64 2.08-2.08 2.08h-12.04c-2.43 0-3.53.93-3.53 2.89v13.84c0 1.97.87 2.84 2.66 2.84h5.62v-9.03c0-1.45.64-2.08 2.08-2.08h8.98c1.45 0 2.08.64 2.08 2.08v17.89c0 1.45-.64 2.08-2.08 2.08h-18.24Z" fill="#ffffff"/>
        <path d="M235.44 104.12c-9.73 0-14.25-3.76-14.25-11.81V74.24c0-8.05 4.52-11.81 14.25-11.81h14.48c1.45 0 2.08.64 2.08 2.08v7.01c0 1.45-.64 2.08-2.08 2.08h-12.04c-2.43 0-3.53.93-3.53 2.89v13.84c0 1.97.87 2.84 2.66 2.84h5.62v-9.03c0-1.45.64-2.08 2.08-2.08h8.98c1.45 0 2.08.64 2.08 2.08v17.89c0 1.45-.64 2.08-2.08 2.08h-18.24Z" fill="#ffffff"/>
        <path d="M275.62 104.12c-1.45 0-2.08-.64-2.08-2.08V64.52c0-1.45.64-2.08 2.08-2.08h25.83c1.45 0 2.08.64 2.08 2.08v6.89c0 1.45-.64 2.08-2.08 2.08h-14.77v6.02h10.08c1.45 0 2.08.64 2.08 2.08v6.95c0 1.45-.64 2.08-2.08 2.08h-10.08v11.41c0 1.45-.64 2.08-2.08 2.08h-8.98Z" fill="#ffffff"/>
        <path d="M325.54 104.98c-14.48 0-18.01-4.75-18.01-11.81V73.42c0-7.07 3.53-11.87 18.01-11.87s17.95 4.81 17.95 11.87v19.75c0 7.06-3.47 11.81-17.95 11.81m0-11.17c4.23 0 4.86-1.16 4.86-2.72V75.51c0-1.5-.64-2.66-4.86-2.66s-4.86 1.16-4.86 2.66v15.58c0 1.56.69 2.72 4.86 2.72" fill="#ffffff"/>
        <path d="M351.77 104.12c-1.45 0-2.08-.64-2.08-2.08V64.52c0-1.45.64-2.08 2.08-2.08h19.28c8.69 0 11.41 3.94 11.41 9.67v2.66c0 3.24-.81 5.56-3.24 6.6 4.23.46 7.01 3.53 7.01 8.4v12.28c0 1.45-.64 2.08-2.08 2.08h-8.98c-1.45 0-2.08-.64-2.08-2.08v-8.86c0-1.74-.58-2.49-2.2-2.49h-8.11v11.35c0 1.45-.64 2.08-2.08 2.08h-8.92Zm11.01-23.86h4.34c2.03 0 2.55-1.16 2.55-2.72v-1.97c0-1.56-.52-2.72-2.55-2.72h-4.34z" fill="#ffffff"/>
        <path d="M413.15 104.12h-8.51c-1.45 0-2.08-.64-2.08-2.08V86.75c0-2.32.7-5.21 2.26-9.27l5.04-13.14c.46-1.33 1.39-1.91 2.95-1.91h15.58c1.51 0 2.43.58 2.9 1.91l5.04 13.14c1.56 4.05 2.26 6.95 2.26 9.27v15.29c0 1.45-.64 2.08-2.08 2.08h-8.74c-1.56 0-2.26-.64-2.26-2.08v-8.11h-10.25v8.11c0 1.45-.64 2.08-2.08 2.08Zm2.67-20.73h9.09l-2.72-8.8c-.29-.7-.64-.98-1.1-.98h-1.45c-.46 0-.81.29-1.1.98z" fill="#ffffff"/>
        <path d="M446.62 104.12c-1.45 0-2.08-.64-2.08-2.08V64.52c0-1.45.64-2.08 2.08-2.08h8.98c1.45 0 2.08.64 2.08 2.08v28.66h7.93V83.8c0-1.45.64-2.08 2.08-2.08h8.4c1.45 0 2.08.64 2.08 2.08v18.24c0 1.45-.64 2.08-2.08 2.08z" fill="#ffffff"/>
        <path d="M485.71 104.12c-1.45 0-2.08-.64-2.08-2.08V64.52c0-1.45.64-2.08 2.08-2.08h8.98c1.45 0 2.08.64 2.08 2.08v28.66h7.93V83.8c0-1.45.64-2.08 2.08-2.08h8.4c1.45 0 2.08.64 2.08 2.08v18.24c0 1.45-.64 2.08-2.08 2.08z" fill="#ffffff"/>
        <path d="M394.81 63.9c-1.12 3.2-2.18 6.48-.27 9.21l1.2-.84c-.23-.33-.4-.67-.52-1.02l.15.21 6.31-4.42-.84-1.2-5.88 4.12c-.11-1.73.58-3.7 1.34-5.88.02-.05.03-.1.05-.15h.15c3.41.04 6.35.07 7.89 2.28l1.2-.84c-1.91-2.73-5.36-2.86-8.75-2.9 1.1-3.33 1.86-6.94-.51-10.32l-2.13-3.04-1.2.84 1.95 2.79-6.08 4.26.84 1.2 6-4.2c.25.52.43 1.04.54 1.57l-6 4.2.84 1.2 5.31-3.72c-.02 1.71-.52 3.46-1.11 5.2-3.4-.07-6.75-.42-8.83-3.4l-2.13-3.04-1.2.84 2.13 3.04c2.37 3.39 6.03 3.9 9.53 4.01Z" fill="#fdcf23"/>
        <path d="M381 51.21c-1.84-2.63-.89-5.71.33-8.75 1.7-.05 3.38-.03 4.87.37l-5.22 3.66.84 1.2 6.01-4.21c.48.27.91.62 1.31 1.04l-6.03 4.22.84 1.2 6.08-4.26 1.54 2.2 1.2-.84-1.91-2.73c-2.13-3.04-5.59-3.38-8.94-3.33 1.22-3.01 2.35-6.08.63-8.54l-1.2.84c1.35 1.93.28 4.55-.96 7.58-.02.06-.05.11-.07.17h-.19c-1.92.07-3.69.14-5.09-.21l5.56-3.89-.84-1.2-6.29 4.4c-.3-.22-.56-.47-.78-.79l-1.2.84c1.73 2.47 5 2.46 8.24 2.34-1.2 3.13-2.06 6.49.07 9.54l1.91 2.73 1.2-.84-1.91-2.73Z" fill="#fdcf23"/>
        <path d="M406.48 39.75c1.23-.86 2.92-.56 3.78.67s.56 2.92-.67 3.78-2.92.56-3.78-.67-.56-2.92.67-3.78m2.55 3.65c.78-.55.98-1.64.43-2.42s-1.64-.98-2.42-.43-.98 1.64-.43 2.42 1.64.98 2.42.43" fill="#fdcf23"/>
        <path d="M393.11 43.87c-.7.39 1.95-2.07 4.38-2.66s4.65.2 4.65.2l3.17.56.44.62-3.19-.05s-8.43.76-9.45 1.33" fill="#fdcf23"/>
        <path d="M402.41 33.95c1.23-.86 2.92-.56 3.78.67s.56 2.92-.67 3.78-2.92.56-3.78-.67-.56-2.92.67-3.78m2.56 3.65c.78-.55.98-1.64.43-2.42s-1.64-.98-2.42-.43-.98 1.64-.43 2.42 1.64.98 2.42.43" fill="#fdcf23"/>
        <path d="M397.09 49.56c-.6.52 2.61-1.12 4-3.2s1.4-4.44 1.4-4.44l.56-3.17-.44-.62-1.04 3.01s-3.6 7.66-4.48 8.43Z" fill="#fdcf23"/>
    </g>
</svg>
