<?xml version="1.0" encoding="UTF-8"?>
<svg id="_レイヤー_1" data-name="レイヤー_1" xmlns="http://www.w3.org/2000/svg" version="1.1" viewBox="0 0 511.3 65.2">
  <!-- Generator: Adobe Illustrator 29.7.1, SVG Export Plug-In . SVG Version: 2.1.1 Build 8)  -->
  <defs>
    <style>
      .st0 {
        fill: #fff;
      }

      .st1 {
        fill: #e5a51c;
      }
    </style>
  </defs>
  <path class="st0" d="M33.3,12.3H9.1v14.5h23.5v8.6H9.1v20.2h24.2v8.6H0V3.8h33.3v8.6Z"/>
  <path class="st1" d="M234.8,12.3h-21v14.5h20.3v8.6h-20.3v28.7h-9.1V3.8h30.1v8.6Z"/>
  <path class="st1" d="M242.4,33.7c0-8.5,3.1-15.8,9.3-21.9,6.2-6.1,13.6-9.1,22.3-9.1s16,3.1,22.1,9.2c6.2,6.1,9.3,13.5,9.3,22.1s-3.1,16-9.3,22.1c-6.2,6.1-13.7,9.1-22.5,9.1s-14.8-2.7-21-8.1c-6.8-6-10.2-13.8-10.2-23.4ZM251.6,33.8c0,6.7,2.2,12.1,6.7,16.4,4.5,4.3,9.6,6.4,15.4,6.4s11.7-2.2,16-6.6c4.3-4.4,6.5-9.8,6.5-16.2s-2.1-11.8-6.4-16.2c-4.3-4.4-9.6-6.6-15.9-6.6s-11.6,2.2-15.9,6.6c-4.3,4.3-6.5,9.7-6.5,16Z"/>
  <path class="st1" d="M337.3,38.4l18.7,25.7h-11.1l-17.2-24.7h-1.6v24.7h-9.1V3.8h10.7c8,0,13.7,1.5,17.3,4.5,3.9,3.3,5.9,7.7,5.9,13.2s-1.2,7.9-3.7,11c-2.4,3.1-5.7,5-9.7,5.9ZM326,31.5h2.9c8.6,0,12.9-3.3,12.9-9.9s-4.2-9.3-12.6-9.3h-3.2v19.1Z"/>
  <path class="st0" d="M425.2,49.5h-25.8l-6.7,14.6h-9.8L412.7,0l28.8,64.1h-10l-6.3-14.6ZM421.5,40.9l-8.9-20.5-9.4,20.5h18.3Z"/>
  <path class="st0" d="M458.1,3.8v51.8h17.7v8.6h-26.8V3.8h9.1Z"/>
  <path class="st0" d="M493.6,3.8v51.8h17.7v8.6h-26.8V3.8h9.1Z"/>
  <path class="st0" d="M90.9,33.1l-10.5-6-10.5,6-10.2-5.9v8.6l10.2,5.9,10.5-6,10.5,6,.3-.2c-.5,4.1-2.4,7.7-5.9,10.7-3.6,3-7.6,4.5-12.1,4.5s-10.1-2-14.6-6.1c-4.8-4.3-7.2-9.9-7.2-16.6s2.2-11.9,6.5-16.2c4.3-4.4,9.7-6.6,16.1-6.6s13.1,3.3,18.1,9.9l6.5-6.2c-3.8-4.3-7.6-7.4-11.5-9.4-4.1-1.9-8.5-2.9-13.2-2.9-8.8,0-16.2,3.1-22.3,9.2-6.1,6.1-9.2,13.5-9.2,22.3s3,15.9,9,22c6,6.1,13.2,9.1,21.7,9.1s15.8-3.2,21.4-9.5c2.5-2.8,4.2-5.8,5.3-9.1,1-3.2,1.5-6.8,1.6-10.9h0v-8.6l-10.2,5.9Z"/>
  <path class="st0" d="M158.3,33.1l-10.5-6-10.5,6-10.2-5.9v8.6l10.2,5.9,10.5-6,10.5,6,.3-.2c-.5,4.1-2.4,7.7-5.9,10.7-3.6,3-7.6,4.5-12.1,4.5s-10.1-2-14.6-6.1c-4.8-4.3-7.2-9.9-7.2-16.6s2.2-11.9,6.5-16.2c4.3-4.4,9.7-6.6,16.1-6.6s13.1,3.3,18.1,9.9l6.5-6.2c-3.8-4.3-7.6-7.4-11.5-9.4-4.1-1.9-8.5-2.9-13.2-2.9-8.8,0-16.2,3.1-22.3,9.2-6.1,6.1-9.2,13.5-9.2,22.3s3,15.9,9,22c6,6.1,13.2,9.1,21.7,9.1s15.8-3.2,21.4-9.5c2.5-2.8,4.2-5.8,5.3-9.1,1-3.2,1.5-6.8,1.6-10.9h0v-8.6l-10.2,5.9Z"/>
</svg>