<?xml version="1.0" encoding="UTF-8"?><svg id="_レイヤー_1" xmlns="http://www.w3.org/2000/svg" viewBox="0 0 511.33 65.23"><defs><style>.cls-1{fill:#e5a51c;}.cls-2{fill:#323333;}</style></defs><path class="cls-2" d="M33.28,12.34H9.1v14.49h23.48v8.55H9.1v20.16h24.18v8.55H0V3.79h33.28v8.55Z"/><path class="cls-1" d="M234.8,12.34h-21.02v14.49h20.27v8.55h-20.27v28.71h-9.1V3.79h30.12v8.55Z"/><path class="cls-1" d="M242.42,33.67c0-8.49,3.11-15.78,9.34-21.88,6.2-6.09,13.65-9.14,22.34-9.14s15.96,3.07,22.11,9.22c6.17,6.15,9.26,13.53,9.26,22.15s-3.1,16.03-9.3,22.07c-6.22,6.07-13.74,9.1-22.54,9.1-7.79,0-14.78-2.7-20.98-8.09-6.82-5.96-10.23-13.78-10.23-23.44ZM251.6,33.79c0,6.67,2.24,12.15,6.72,16.44,4.45,4.3,9.6,6.45,15.43,6.45,6.33,0,11.67-2.19,16.02-6.56,4.35-4.43,6.52-9.82,6.52-16.17s-2.15-11.82-6.45-16.17c-4.27-4.38-9.56-6.56-15.86-6.56s-11.58,2.19-15.9,6.56c-4.32,4.32-6.48,9.66-6.48,16.02Z"/><path class="cls-1" d="M337.34,38.4l18.67,25.7h-11.13l-17.23-24.69h-1.64v24.69h-9.1V3.79h10.66c7.97,0,13.72,1.5,17.27,4.49,3.91,3.33,5.86,7.73,5.86,13.2,0,4.27-1.22,7.94-3.67,11.02-2.45,3.07-5.68,5.04-9.69,5.9ZM326.02,31.48h2.89c8.62,0,12.93-3.29,12.93-9.88,0-6.17-4.19-9.26-12.58-9.26h-3.24v19.14Z"/><path class="cls-2" d="M425.2,49.45h-25.82l-6.72,14.65h-9.8L412.7,0l28.79,64.1h-9.96l-6.33-14.65ZM421.48,40.9l-8.95-20.51-9.38,20.51h18.32Z"/><path class="cls-2" d="M458.13,3.79v51.76h17.73v8.55h-26.84V3.79h9.1Z"/><path class="cls-2" d="M493.59,3.79v51.76h17.73v8.55h-26.84V3.79h9.1Z"/><path class="cls-2" d="M90.94,33.12l-10.48-6-10.48,6-10.23-5.86v8.55l10.23,5.86,10.48-6,10.48,6,.32-.18c-.47,4.14-2.44,7.71-5.94,10.7-3.57,3.02-7.59,4.53-12.07,4.53-5.26,0-10.14-2.02-14.65-6.05-4.82-4.35-7.23-9.88-7.23-16.6s2.16-11.93,6.48-16.25c4.32-4.4,9.67-6.6,16.05-6.6,7.11,0,13.14,3.29,18.09,9.88l6.48-6.21c-3.78-4.32-7.62-7.45-11.52-9.38-4.09-1.93-8.49-2.89-13.2-2.89-8.78,0-16.22,3.06-22.34,9.18-6.12,6.09-9.18,13.52-9.18,22.27s3.01,15.91,9.02,22.03c6.02,6.09,13.24,9.14,21.68,9.14s15.77-3.15,21.37-9.45c2.47-2.81,4.23-5.83,5.27-9.06.97-3.19,1.48-6.83,1.57-10.88l.03-.02v-8.55l-10.24,5.86Z"/><path class="cls-2" d="M158.32,33.12l-10.48-6-10.48,6-10.23-5.86v8.55l10.23,5.86,10.48-6,10.48,6,.32-.18c-.47,4.14-2.44,7.71-5.94,10.7-3.57,3.02-7.59,4.53-12.07,4.53-5.26,0-10.14-2.02-14.65-6.05-4.82-4.35-7.23-9.88-7.23-16.6s2.16-11.93,6.48-16.25c4.32-4.4,9.67-6.6,16.05-6.6,7.11,0,13.14,3.29,18.09,9.88l6.48-6.21c-3.78-4.32-7.62-7.45-11.52-9.38-4.09-1.93-8.49-2.89-13.2-2.89-8.78,0-16.22,3.06-22.34,9.18-6.12,6.09-9.18,13.52-9.18,22.27s3.01,15.91,9.02,22.03c6.02,6.09,13.24,9.14,21.68,9.14s15.77-3.15,21.37-9.45c2.47-2.81,4.23-5.83,5.27-9.06.97-3.19,1.48-6.83,1.57-10.88l.03-.02v-8.55l-10.24,5.86Z"/></svg>